<svg xmlns="http://www.w3.org/2000/svg" xmlns:xlink="http://www.w3.org/1999/xlink" preserveAspectRatio="xMidYMid meet" version="1.0" viewBox="-15.7 0.0 873.8 1200.4" zoomAndPan="magnify" style="fill: rgb(0, 0, 0);" original_string_length="2458"><g><g><g><linearGradient xmlns:xlink="http://www.w3.org/1999/xlink" gradientTransform="matrix(-1 0 0 1 10731.03 0)" gradientUnits="userSpaceOnUse" id="__id207_smt5tkzcg" x1="10163.412" x2="10163.412" xlink:actuate="onLoad" xlink:show="other" xlink:type="simple" y1="-2703.659" y2="8729.1"><stop offset="0" style="stop-color: rgb(255, 255, 255);"/><stop offset="1" style="stop-color: rgb(85, 131, 61);"/></linearGradient><path d="M725.3,833.1c-47.5,40-105.5,65.3-163.1,88.5c-57.6,23.2-116.5,45.1-168,79.9 c-0.4,0.3-0.8,0.5-1.2,0.8c-61.4,41.8-100.6,109.1-107.9,183c-0.5,5-0.9,10-1.3,15.1c14.5-60.4,58.9-110.1,110.4-144.9 c51.5-34.8,110.3-56.7,168-79.9c57.6-23.2,115.6-48.4,163.1-88.5c91.1-76.7,132.8-201.7,125.3-320.8 C844.3,667.9,802.7,767.9,725.3,833.1z" style="fill: url(&quot;#__id207_smt5tkzcg&quot;);"/></g></g><linearGradient xmlns:xlink="http://www.w3.org/1999/xlink" gradientTransform="matrix(-1 0 0 1 10731.03 0)" gradientUnits="userSpaceOnUse" id="__id208_smt5tkzcg" x1="10208.751" x2="10208.751" xlink:actuate="onLoad" xlink:show="other" xlink:type="simple" y1="-2703.659" y2="8729.1"><stop offset="0" style="stop-color: rgb(255, 255, 255);"/><stop offset="1" style="stop-color: rgb(85, 131, 61);"/></linearGradient><path d="M795.5,502C785,388.1,730.8,281.7,660,191.9c23.1,66.3-9.9,141.2-60.4,190.1 c-50.4,48.9-115.9,78.4-177.2,112.6c-61.3,34.2-122.3,76.8-152.8,140c-23.4,48.5-26.3,104.9-17.9,158.1 c5.5,35.1,15.6,69.2,27.3,102.9c16.5-40.3,38.7-78.2,66-112.2C401,713.7,471.6,656.6,544,604c138.4-100.6,147.6-141.9,150.6-216.6 c14,60.6-16.4,123.8-59,169.1s-96.7,78-144.6,117.7c-126.8,105.2-208.3,263.2-220.5,427.5c13.5-56,54.6-102.2,102.4-134.4 c47.8-32.3,102.4-52.6,155.8-74.1c53.5-21.5,107.3-44.9,151.3-82.1C767.6,737.5,805.9,615.9,795.5,502z" style="fill: url(&quot;#__id208_smt5tkzcg&quot;);"/><g><g id="__id209_smt5tkzcg"><path d="M239.3,606.3c14-29.1,34.5-53.8,58.5-75.3c-5.8-8.1-11.7-16.1-17.9-24 c-38.5-48.9-84.5-92.1-116.7-145.4c-32.1-53.3-48.7-121.4-22.2-177.7c-11.1,87.8,4.5,124.1,101.9,243.3 c24.1,29.6,48.9,58.9,72.5,89c23.9-18.9,50.3-35.2,76.8-49.9c23.3-13,47.2-25.3,70.6-38.3c-22.1-30.3-49.8-57.4-78.1-82.2 c-52.8-46.3-110.6-88.9-149.6-147.3C196,140.1,179.4,60,215.9,0C127.8,72.9,52.5,165.5,18.4,274.7 C-15.7,383.9-3.8,510.8,66.3,601.2c35.3,45.5,83,79.7,130.8,112c6.8,4.6,13.6,9.2,20.4,13.7C215.5,685.4,221.4,643.6,239.3,606.3 z" style="fill: rgb(0, 148, 68);"/></g></g></g></svg>